<?xml version="1.0" encoding="utf-8"?>
<svg viewBox="1.645 1.659 48.438 33.9196" width="48.438" height="33.92" xmlns="http://www.w3.org/2000/svg">
    <g transform="matrix(9.26828670501709, 0, 0, 9.108369827270508, -33.083709716796875, -98.5330581665039)" style="">
        <path opacity="1" data-original="#000000" class="" d="M 8.673 12.716 L 8.175 12.719 C 8.109 11.75 7.394 11.001 6.534 11 L 4.886 11 C 4.816 11 4.759 11.064 4.759 11.143 L 4.759 11.573 L 4.125 11.573 C 4.028 11.573 3.967 11.692 4.016 11.788 C 4.038 11.832 4.08 11.86 4.125 11.86 L 4.759 11.86 L 4.759 13.865 L 4.125 13.865 C 4.028 13.865 3.967 13.984 4.016 14.08 C 4.038 14.124 4.08 14.151 4.125 14.151 L 4.759 14.151 L 4.759 14.581 C 4.759 14.66 4.816 14.724 4.886 14.724 L 6.534 14.724 C 7.394 14.723 8.109 13.975 8.175 13.005 L 8.68 13.001 C 8.778 13.001 8.702 12.871 8.754 12.776 C 8.778 12.732 8.723 12.681 8.673 12.716 Z M 6.534 14.438 L 5.013 14.438 L 5.013 11.286 L 6.534 11.286 C 7.607 11.286 8.278 12.6 7.742 13.65 C 7.492 14.138 7.032 14.438 6.534 14.438 Z" style="fill: #6C63EE;"/>
    </g>
    <g id="SvgjsG2346" featurekey="monogramFeature-0" transform="matrix(1.4043710231781006, 0, 0, 1.3578720092773438, 14.577394485473633, 1.738477945327757)" fill="#6C63EE" style="">
        <path d="M 10.56 5.52 C 11.373 5.826 12.107 6.32 12.76 7 C 14.16 8.413 14.86 10.216 14.86 12.41 C 14.86 14.603 14.16 16.413 12.76 17.84 C 12.107 18.52 11.373 19.013 10.56 19.32 C 9.72 19.666 8.86 19.84 7.98 19.84 L 2.32 19.84 C 2.133 19.84 1.97 19.77 1.83 19.63 C 1.69 19.49 1.62 19.326 1.62 19.14 L 1.62 17.7 C 1.62 17.5 1.69 17.33 1.83 17.19 C 1.97 17.05 2.133 16.98 2.32 16.98 L 7.92 16.98 C 9.107 16.98 10.07 16.546 10.81 15.68 C 11.55 14.813 11.92 13.726 11.92 12.42 C 11.92 11.113 11.55 10.026 10.81 9.16 C 10.07 8.293 9.107 7.86 7.92 7.86 L 2.32 7.86 C 2.133 7.86 1.97 7.79 1.83 7.65 C 1.69 7.51 1.62 7.34 1.62 7.14 L 1.62 5.7 C 1.62 5.513 1.69 5.35 1.83 5.21 C 1.97 5.07 2.133 5 2.32 5 L 7.98 5 C 8.86 5 9.72 5.173 10.56 5.52 Z"/>
    </g>
    <ellipse style="stroke: rgb(0, 0, 0); fill-rule: nonzero; paint-order: fill; stroke-width: 0px; fill: #6C63EE;" cx="47.083" cy="18.564" rx="2" ry="1.999"/>
    <ellipse style="stroke: rgb(0, 0, 0); fill-rule: nonzero; paint-order: fill; stroke-width: 0px; fill: #6C63EE;" cx="3.661" cy="8.026" rx="2" ry="1.999"/>
    <ellipse style="stroke: rgb(0, 0, 0); fill-rule: nonzero; paint-order: fill; stroke-width: 0px; fill: #6C63EE;" cx="3.645" cy="29.044" rx="2" ry="1.999"/>
</svg>