<?xml version="1.0" encoding="utf-8"?>
<svg viewBox="335.4865 136.3 89.7035 103.7" width="89.703" height="103.7" xmlns="http://www.w3.org/2000/svg">
<g transform="matrix(0.9999999999999999, 0, 0, 0.9999999999999999, 2.842170943040401e-14, 1.4210854715202004e-14)">
    <g transform="matrix(26.259817, 0, 0, 27.823929, 210.489807, -171.349136)" style="">
        <path opacity="1" data-original="#000000" class="" d="M 8.176 13.063 L 8.176 12.777 C 8.11 11.808 7.395 11.059 6.535 11.058 L 4.887 11.058 C 4.817 11.058 4.76 11.122 4.76 11.201 L 4.76 14.639 C 4.76 14.718 4.817 14.782 4.887 14.782 L 6.535 14.782 C 7.395 14.781 8.11 14.033 8.176 13.063 Z" style=""/>
    </g>
    <path d="M 310.364 175.602 L 414.064 175.602 L 414.064 172.854 L 310.364 172.854 L 310.364 175.602 Z M 310.364 191.91 L 414.064 191.91 L 414.064 190.535 L 310.364 190.535 L 310.364 191.91 Z M 310.364 203.141 L 414.064 203.141 L 414.064 202.124 L 310.364 202.124 L 310.364 203.141 Z M 310.364 197.705 L 414.064 197.705 L 414.064 196.331 L 310.364 196.331 L 310.364 197.705 Z M 310.364 186.474 L 414.064 186.474 L 414.064 184.742 L 310.364 184.742 L 310.364 186.474 Z M 310.364 208.635 L 414.064 208.635 L 414.064 208.277 L 310.364 208.277 L 310.364 208.635 Z M 310.364 181.038 L 414.064 181.038 L 414.064 178.648 L 310.364 178.648 L 310.364 181.038 Z M 310.364 170.106 C 310.364 170.106 310.377 167.432 310.377 167.032 L 414.042 167.032 C 414.042 167.432 414.064 170.106 414.064 170.106 L 310.364 170.106 Z" style="fill: rgb(255, 255, 255); transform-origin: 362.516px 187.848px;" transform="matrix(0, -1, 1, 0, 0.000017, 0.00001)"/>
</g>
</svg>