<?xml version="1.0" standalone="no"?>
<!DOCTYPE svg PUBLIC "-//W3C//DTD SVG 20010904//EN"
 "http://www.w3.org/TR/2001/REC-SVG-20010904/DTD/svg10.dtd">
<svg version="1.0" xmlns="http://www.w3.org/2000/svg"
 width="1080.000000pt" height="1080.000000pt" viewBox="0 0 1080.000000 1080.000000"
 preserveAspectRatio="xMidYMid meet">
<metadata>
Created by potrace 1.14, written by Peter Selinger 2001-2017
</metadata>
<g transform="translate(0.000000,1080.000000) scale(0.100000,-0.100000)"
fill="#000000" stroke="none">
<path d="M0 5400 l0 -5400 5400 0 5400 0 0 5400 0 5400 -5400 0 -5400 0 0
-5400z m9915 4690 c64 -31 124 -91 155 -155 l25 -50 0 -4475 0 -4475 -25 -50
c-31 -64 -91 -124 -155 -155 l-50 -25 -4475 0 -4475 0 -50 25 c-64 31 -124 91
-155 155 l-25 50 -3 4455 c-2 4062 -1 4459 14 4504 32 100 105 174 204 209 41
15 469 16 4505 14 l4460 -2 50 -25z"/>
<path d="M2015 9551 c-76 -19 -148 -84 -188 -169 l-22 -47 0 -3920 0 -3920 26
-55 c34 -74 79 -124 137 -151 42 -21 62 -23 187 -24 l140 0 3 4148 2 4147
-127 -1 c-71 -1 -141 -4 -158 -8z"/>
<path d="M2545 9548 c-3 -7 -4 -1874 -3 -4148 l3 -4135 108 -3 107 -3 0 4151
0 4150 -105 0 c-75 0 -107 -4 -110 -12z"/>
<path d="M2982 5413 l3 -4148 120 0 120 0 3 4148 2 4147 -125 0 -125 0 2
-4147z"/>
<path d="M3420 5410 l0 -4151 148 3 147 3 0 4145 0 4145 -147 3 -148 3 0
-4151z"/>
<path d="M3852 5413 l3 -4148 160 0 160 0 3 4148 2 4147 -165 0 -165 0 2
-4147z"/>
<path d="M4290 5410 l0 -4150 175 0 175 0 0 4150 0 4150 -175 0 -175 0 0
-4150z"/>
<path d="M4752 5413 l3 -4148 175 0 175 0 0 4145 0 4145 -178 3 -177 2 2
-4147z"/>
<path d="M5190 5410 l0 -4150 174 0 c95 0 188 3 205 6 l31 7 0 4143 0 4144
-205 0 -205 0 0 -4150z"/>
<path d="M5630 5413 l0 -4143 53 0 c82 0 299 28 437 56 409 84 822 268 1183
526 282 202 569 483 789 774 497 657 802 1478 879 2364 16 197 7 824 -15 1005
-84 672 -296 1303 -619 1837 -622 1029 -1594 1662 -2644 1721 l-63 3 0 -4143z"/>
</g>
</svg>
