<?xml version="1.0" standalone="no"?>
<!DOCTYPE svg PUBLIC "-//W3C//DTD SVG 20010904//EN"
 "http://www.w3.org/TR/2001/REC-SVG-20010904/DTD/svg10.dtd">
<svg version="1.0" xmlns="http://www.w3.org/2000/svg"
 width="768.000000pt" height="768.000000pt" viewBox="0 0 768.000000 768.000000"
 preserveAspectRatio="xMidYMid meet">
<metadata>
Created by potrace 1.14, written by Peter Selinger 2001-2017
</metadata>
<g transform="translate(0.000000,768.000000) scale(0.100000,-0.100000)"
fill="#000000" stroke="none">
<path d="M1596 6509 c-44 -24 -68 -49 -92 -98 -14 -29 -16 -79 -17 -371 l-1
-337 -450 0 -451 0 -41 39 c-51 49 -85 67 -149 83 -95 22 -202 2 -262 -49 -51
-43 -72 -69 -98 -121 -58 -116 -31 -270 63 -360 111 -106 289 -119 407 -30
l30 22 475 -1 475 -1 1 -1447 1 -1448 -461 0 -461 0 -35 31 c-103 89 -236 107
-358 47 -48 -24 -132 -108 -132 -132 0 -9 -4 -16 -8 -16 -16 0 -34 -105 -28
-163 12 -117 91 -223 196 -264 108 -42 253 -16 330 59 l26 25 464 -1 465 -1 2
-325 c1 -179 4 -335 6 -347 14 -57 55 -107 114 -137 30 -15 146 -16 1360 -13
731 2 1342 6 1358 9 17 3 57 8 90 12 33 4 67 9 75 11 8 2 29 7 45 9 89 16 361
99 380 117 5 5 15 9 23 9 43 0 409 206 488 275 7 6 24 19 40 30 28 20 70 54
113 90 13 11 69 65 125 120 95 95 132 135 194 214 15 18 35 43 45 55 22 24
187 272 187 279 0 3 18 37 39 75 38 66 139 283 145 312 1 3 14 37 28 75 33 85
88 275 88 302 0 11 3 23 7 27 4 3 8 14 9 24 2 9 8 46 15 82 7 36 13 76 15 90
1 14 3 27 4 30 6 14 24 178 23 208 0 13 6 22 16 23 9 1 114 2 234 3 203 2 219
1 235 -17 18 -21 82 -57 122 -70 115 -37 256 3 334 94 46 55 81 151 78 214 -7
179 -159 319 -336 310 -65 -4 -150 -40 -197 -84 -31 -30 -34 -31 -133 -32 -56
0 -156 -1 -224 -2 -102 -2 -122 0 -124 13 0 8 -2 20 -3 25 -1 6 -5 42 -9 80
-9 75 -14 116 -21 155 -2 14 -7 39 -9 55 -3 17 -14 71 -26 120 -11 50 -22 99
-24 110 -5 24 -82 262 -95 290 -5 11 -24 56 -42 100 -31 75 -89 191 -146 295
-32 57 -165 256 -195 292 -13 15 -34 41 -48 59 -155 202 -458 462 -683 588
-173 97 -418 199 -540 226 -12 2 -40 9 -62 15 -22 5 -56 12 -75 15 -19 3 -41
8 -48 10 -7 3 -39 8 -70 11 -31 3 -79 10 -107 14 -27 5 -639 9 -1360 9 l-1310
1 -39 -21z m2709 -403 c17 -2 52 -7 80 -11 174 -20 500 -135 650 -228 180
-111 286 -192 403 -308 231 -227 375 -442 524 -779 38 -84 115 -333 123 -395
1 -11 5 -27 8 -35 10 -23 36 -199 44 -292 14 -158 8 -427 -13 -553 -2 -16 -5
-37 -5 -45 -1 -8 -7 -44 -15 -80 -7 -37 -15 -77 -17 -90 -8 -42 -55 -201 -81
-275 -49 -139 -125 -303 -196 -420 -16 -27 -35 -60 -41 -73 -7 -12 -16 -22
-21 -22 -4 0 -8 -7 -8 -15 0 -8 -4 -15 -10 -15 -5 0 -10 -5 -10 -10 0 -11 -61
-97 -110 -154 -74 -88 -162 -178 -270 -275 -46 -41 -227 -171 -239 -171 -5 0
-11 -4 -13 -8 -8 -21 -264 -143 -388 -185 -165 -56 -244 -73 -430 -95 -36 -4
-592 -8 -1235 -7 l-1170 0 -3 2276 -2 2275 1207 -2 c665 -1 1222 -5 1238 -8z"/>
<path d="M2608 5444 c-3 -2 -25 -6 -50 -7 -54 -3 -113 -44 -134 -93 -16 -39
-20 -377 -5 -417 12 -30 48 -70 81 -88 20 -11 154 -13 710 -14 377 -1 710 -5
740 -9 76 -10 184 -43 252 -76 267 -132 459 -423 494 -746 12 -113 7 -291 -11
-374 -3 -14 -7 -37 -10 -51 -12 -68 -83 -249 -105 -269 -3 -3 -14 -21 -24 -40
-11 -19 -22 -37 -25 -40 -3 -3 -18 -21 -33 -41 -31 -42 -116 -127 -148 -149
-12 -8 -32 -22 -44 -32 -22 -17 -139 -78 -149 -78 -3 0 -18 -5 -34 -12 -32
-13 -29 -12 -68 -21 -16 -4 -43 -10 -60 -14 -16 -4 -343 -8 -725 -10 -382 -2
-709 -5 -727 -8 -41 -7 -92 -50 -109 -92 -15 -34 -20 -339 -8 -401 8 -41 54
-91 97 -106 25 -8 222 -11 753 -10 395 1 733 5 749 8 17 3 46 8 65 12 31 5
121 26 173 39 9 3 25 7 35 9 86 20 392 167 392 189 0 4 5 7 11 7 32 0 261 218
341 325 29 39 56 72 61 73 4 2 7 8 7 14 0 5 13 28 29 51 85 125 191 415 206
567 2 14 4 25 5 25 7 0 14 159 14 300 -1 191 -7 241 -48 432 -13 62 -80 238
-117 309 -52 98 -138 234 -149 234 -5 0 -11 8 -14 18 -14 42 -240 257 -347
330 -96 64 -294 156 -384 178 -16 4 -36 11 -42 17 -7 5 -13 7 -13 4 0 -3 -15
-1 -32 4 -109 32 -438 68 -438 47 0 -4 -13 -3 -29 2 -15 4 -34 4 -41 0 -7 -4
-25 -4 -40 0 -15 4 -33 4 -41 -1 -8 -4 -21 -4 -28 1 -8 4 -27 4 -43 -1 -16 -4
-36 -5 -44 -2 -21 8 -694 9 -694 1 0 -4 -13 -3 -29 2 -15 4 -34 4 -41 0 -7 -4
-25 -4 -40 0 -15 4 -33 4 -41 0 -7 -5 -20 -5 -30 0 -9 5 -19 7 -21 4z"/>
</g>
</svg>
