<svg width="145" height="69" viewBox="0 0 145 69" fill="none" xmlns="http://www.w3.org/2000/svg">
<g clip-path="url(#clip0_168_690)">
<path d="M52.0852 32.8482C53.4118 32.8482 53.8135 34.0592 53.8135 34.7269C53.8106 34.7269 50.2383 34.7269 50.2383 34.7269C50.2354 33.7818 50.8915 32.8482 52.0852 32.8482ZM55.8945 38.4553C55.5159 38.5825 55.1228 38.6981 54.7297 38.779C54.2673 38.8715 53.7904 38.9235 53.3048 38.9235C51.7354 38.9235 50.5071 38.4004 50.3077 37.1576H57.0015C57.0506 36.9177 57.1402 36.3396 57.1402 35.7327C57.1402 32.906 55.7327 30.3135 52.1459 30.3135C48.6602 30.3135 46.8047 33.0476 46.8047 36.1084C46.8047 39.6374 49.273 41.6577 52.7181 41.6577C53.5968 41.6577 54.2384 41.5796 54.7673 41.4727C55.3165 41.36 55.9234 41.1808 56.435 40.9496L55.8945 38.4553Z" fill="#6F7685"/>
<path d="M104.053 32.8482C105.38 32.8482 105.781 34.0592 105.781 34.7269C105.778 34.7269 102.206 34.7269 102.206 34.7269C102.203 33.7818 102.859 32.8482 104.053 32.8482ZM107.862 38.4553C107.487 38.5825 107.091 38.6981 106.697 38.779C106.235 38.8715 105.758 38.9235 105.273 38.9235C103.703 38.9235 102.475 38.4004 102.275 37.1576H108.969C109.018 36.9177 109.105 36.3396 109.105 35.7327C109.105 32.906 107.697 30.3135 104.111 30.3135C100.625 30.3135 98.7695 33.0476 98.7695 36.1084C98.7695 39.6374 101.238 41.6577 104.683 41.6577C105.562 41.6577 106.2 41.5796 106.732 41.4727C107.281 41.36 107.888 41.1808 108.4 40.9496L107.862 38.4553Z" fill="#6F7685"/>
<path d="M58.7764 26.7153V41.4238H62.4065V26.7153H58.7764Z" fill="#6F7685"/>
<path d="M69.6992 38.9642C68.52 38.9642 67.7454 37.7994 67.7454 35.9959C67.7454 34.5594 68.2657 33.0276 69.7108 33.0276C71.1068 33.0276 71.6039 34.6172 71.6039 35.9814C71.601 37.7907 70.8495 38.9642 69.6992 38.9642ZM69.6501 41.655C72.4825 41.655 75.3496 39.8717 75.3496 35.8861C75.3496 33.5132 73.945 30.3281 69.8293 30.3281C65.5922 30.3281 64.0459 33.4149 64.0459 36.0681C64.043 39.3977 66.3523 41.655 69.6501 41.655Z" fill="#6F7685"/>
<path d="M76.9277 30.5684V41.4241H80.5579V30.5684H76.9277Z" fill="#6F7685"/>
<path d="M76.9277 26.7188V29.5367H80.5579V26.7188H76.9277Z" fill="#6F7685"/>
<path d="M83.4293 27.6142V30.5651H82.0333V33.2559H83.4293V37.704C83.4293 40.1492 84.5478 41.6463 87.0999 41.6463C87.5797 41.6463 88.1202 41.5972 88.6173 41.522C89.0768 41.4527 89.4872 41.3689 89.6664 41.311C89.6693 41.3082 89.6404 38.4757 89.6404 38.4642C89.5248 38.5046 88.7011 38.6434 88.4005 38.6434C88.1086 38.6434 87.6751 38.6058 87.3658 38.2879C87.1433 38.0624 86.9872 37.6925 86.9872 37.0942V33.2588H89.3341V30.568C89.3341 30.568 87.2964 30.568 86.9872 30.568C86.9872 30.2501 86.9872 27.2153 86.9872 27.2153L83.4293 27.6142Z" fill="#6F7685"/>
<path d="M91.8286 27.6142V30.5651H90.4326V33.2559H91.8286V37.704C91.8286 40.1492 92.9471 41.6463 95.4992 41.6463C95.979 41.6463 96.5194 41.5972 97.0166 41.522C97.479 41.4527 97.8865 41.3689 98.0657 41.311C98.0686 41.3082 98.0397 38.4757 98.0397 38.4642C97.9241 38.5046 97.1004 38.6434 96.7998 38.6434C96.5079 38.6434 96.0743 38.6058 95.7651 38.2879C95.5425 38.0624 95.3865 37.6925 95.3865 37.0942V33.2588H97.7275V30.568C97.7275 30.568 95.6928 30.568 95.3807 30.568C95.3807 30.2501 95.3807 27.2153 95.3807 27.2153L91.8286 27.6142Z" fill="#6F7685"/>
<path d="M32.7587 41.4412H36.8658C37.1433 41.4412 37.4814 41.4354 37.7444 41.4209C43.3659 41.129 45.7042 37.8024 45.7042 33.9583C45.7042 29.1605 42.4671 26.4697 36.8802 26.4697C35.4467 26.4697 34.1721 26.5189 32.7559 26.6374V41.4412H32.7587ZM38.0074 38.5105C37.8571 38.522 37.6288 38.5278 37.4843 38.5278H36.334C36.3369 38.5278 36.334 29.4871 36.334 29.4871C36.7328 29.4525 37.2386 29.4264 37.5768 29.4264C39.6867 29.4264 41.9353 30.7964 41.9353 33.9583C41.9353 37.259 39.8225 38.3602 38.0074 38.5105Z" fill="#6F7685"/>
<path d="M110.305 40.3162C110.305 39.3286 111.105 38.5288 112.092 38.5288C113.08 38.5288 113.88 39.3286 113.88 40.3162C113.88 41.3038 113.08 42.1036 112.092 42.1036C111.107 42.1036 110.305 41.3038 110.305 40.3162Z" fill="#C1C9D2"/>
</g>
<defs>
<clipPath id="clip0_168_690">
<rect width="82" height="16.8824" fill="white" transform="translate(32 26)"/>
</clipPath>
</defs>
</svg>
