<svg width="145" height="60" viewBox="0 0 145 60" fill="none" xmlns="http://www.w3.org/2000/svg">
<g clip-path="url(#clip0_533_7926)">
<path d="M96.4129 17.124H99.385V31.274C99.385 32.5271 98.1986 32.7239 97.8034 32.7239C97.1537 32.7239 96.7617 32.2783 96.5397 32.0286L88.3698 21.6314V32.51H85.4082V18.129C85.4082 17.4964 85.9425 16.7222 87.0402 16.7222C87.8241 16.7222 88.164 17.0638 88.3804 17.2996L96.4129 27.3992V17.124Z" fill="#4C5566"/>
<path d="M20.7341 19.8661V23.7457H24.3023C26.0392 23.7457 26.889 23.3603 26.889 21.7941C26.889 20.2084 26.0392 19.8661 24.3023 19.8661H20.7341ZM24.9975 17.124C28.2763 17.124 29.8392 18.5154 29.8392 21.7534C29.8392 24.1328 28.8382 25.6534 27.0427 26.082L30.4954 32.5117H27.2167L24.0844 26.3031H20.7341V32.5117H17.8213V17.124H24.9975Z" fill="#4C5566"/>
<path d="M59.6095 32.5117H62.6557V17.1232H59.6095V32.5117Z" fill="#4C5566"/>
<path d="M104.149 25.2216C104.149 28.6744 105.08 29.8307 107.491 29.8307H113.311V32.5117H107.357C105.706 32.5117 104.434 32.3605 103.106 31.1594C101.7 29.8957 101.016 27.8791 101.016 25.0915C101.016 19.6449 103.049 17.1151 107.432 17.1151H113.311V19.753H107.491C105.08 19.753 104.149 21.4046 104.149 25.2216Z" fill="#4C5566"/>
<path d="M74.2636 18.4356C74.0847 18.0681 74.0221 18.0542 73.9067 18.0542C73.7887 18.0542 73.7213 18.0681 73.5448 18.4356L66.6906 32.5125H63.5387L70.8922 17.4525C71.6769 15.8481 72.5966 15.1545 73.9067 15.1545C75.2126 15.1545 76.1291 15.8513 76.9121 17.4525L84.264 32.5125H81.1244L74.2636 18.4356Z" fill="#4C5566"/>
<path d="M73.8978 22.8016L69.2529 32.5117H78.5491L73.8978 22.8016Z" fill="#4C5566" fill-opacity="0.6"/>
<path d="M58.1229 29.8323L50.3896 29.8315C50.0091 29.8315 49.5017 29.8315 49.5017 29.8315C49.5017 29.8315 49.5017 29.3566 49.5017 28.9435V17.124H46.5962V29.9828C46.5962 31.3863 47.755 32.5142 49.1406 32.5142H56.5901L58.1229 29.8323Z" fill="#4C5566"/>
<path d="M33.8928 23.7457C34.2766 21.229 35.5989 19.7124 38.0506 19.7124C41.0536 19.7124 41.9132 22.1235 41.9213 23.7457H33.8928ZM37.914 16.9126C33.1195 16.9191 30.6987 20.3857 30.6857 24.8264C30.6971 29.2623 33.5765 32.6459 38.3758 32.6541C41.4513 32.6541 43.5997 31.2928 44.556 30.3975L43.1654 28.1198C42.5304 28.7256 41.3878 29.8852 38.4555 29.8852C36.3023 29.8852 33.9026 28.3288 33.9026 26.4544L33.8969 26.3032H44.795L44.7983 26.2853C45.6448 20.1548 42.889 16.9126 37.914 16.9126Z" fill="#4C5566"/>
<path d="M117.053 23.7457C117.437 21.229 118.758 19.7124 121.21 19.7124C124.214 19.7124 125.073 22.1235 125.081 23.7457H117.053ZM121.075 16.9126C116.279 16.9191 113.86 20.3857 113.848 24.8264C113.86 29.2623 116.736 32.6459 121.537 32.6541C124.613 32.6541 126.761 31.2928 127.717 30.3975L126.324 28.1198C125.69 28.7256 124.548 29.8852 121.616 29.8852C119.462 29.8852 117.063 28.3288 117.063 26.4544L117.056 26.3032H127.954L127.958 26.2853C128.806 20.1548 126.05 16.9126 121.075 16.9126Z" fill="#4C5566"/>
<path fill-rule="evenodd" clip-rule="evenodd" d="M20.9478 45.4751C18.9445 45.4751 17.5391 44.0379 17.5391 41.5628C17.5391 39.0874 18.9965 37.6508 21.0319 37.6508C21.7968 37.6508 22.5198 37.8189 22.8981 38.0501L22.5104 38.983C22.2061 38.805 21.702 38.6579 21.0732 38.6579C19.7934 38.6579 18.7239 39.5702 18.7239 41.5628C18.7239 43.5554 19.7618 44.4789 20.8738 44.4789C21.3362 44.4789 21.7341 44.4044 21.8804 44.321V41.8884H20.4861V40.9754H22.9919V45.0766C22.5938 45.2964 21.8488 45.4751 20.9478 45.4751Z" fill="#4C5566" fill-opacity="0.6"/>
<path fill-rule="evenodd" clip-rule="evenodd" d="M26.2222 40.43C25.3412 40.43 24.7648 41.1015 24.7438 42.2759L27.4801 41.8984C27.4704 40.9123 26.9776 40.43 26.2222 40.43ZM28.5718 42.5067L24.8168 43.0315C24.9325 44.0485 25.5929 44.5628 26.5475 44.5628C27.1136 44.5628 27.7228 44.4263 28.1101 44.2163L28.4452 45.0766C28.0049 45.3073 27.2503 45.4751 26.4739 45.4751C24.6914 45.4751 23.6952 44.332 23.6952 42.5281C23.6952 40.7975 24.6599 39.591 26.2432 39.591C27.7119 39.591 28.5819 40.5564 28.5819 42.0768C28.5819 42.2126 28.5819 42.3596 28.5718 42.5067Z" fill="#4C5566" fill-opacity="0.6"/>
<path fill-rule="evenodd" clip-rule="evenodd" d="M32.6201 45.3596V41.5837C32.6201 40.9229 32.2216 40.5139 31.4347 40.5139C31.0147 40.5139 30.6277 40.5873 30.396 40.6822V45.3596H29.2532V39.9891C29.8197 39.7593 30.5429 39.591 31.425 39.591C33.0074 39.591 33.7734 40.2836 33.7734 41.4791V45.3596H32.6201Z" fill="#4C5566" fill-opacity="0.6"/>
<path fill-rule="evenodd" clip-rule="evenodd" d="M36.9716 40.43C36.0906 40.43 35.5137 41.1015 35.4927 42.2759L38.2299 41.8984C38.2196 40.9123 37.7267 40.43 36.9716 40.43ZM39.3209 42.5067L35.5667 43.0315C35.6817 44.0485 36.3423 44.5628 37.2966 44.5628C37.8623 44.5628 38.4715 44.4263 38.8592 44.2163L39.1951 45.0766C38.7541 45.3073 37.999 45.4751 37.2229 45.4751C35.4403 45.4751 34.4438 44.332 34.4438 42.5281C34.4438 40.7975 35.409 39.591 36.9926 39.591C38.4607 39.591 39.331 40.5564 39.331 42.0768C39.3313 42.2126 39.331 42.3596 39.3209 42.5067Z" fill="#9499A3"/>
<path fill-rule="evenodd" clip-rule="evenodd" d="M42.613 40.5873C42.4452 40.5457 42.2465 40.5243 42.0361 40.5243C41.711 40.5243 41.3648 40.5769 41.1447 40.6713V45.3596H40.0018V39.9891C40.547 39.7593 41.3542 39.591 42.193 39.591C42.4452 39.591 42.6655 39.6023 42.8336 39.6325L42.613 40.5873Z" fill="#4C5566" fill-opacity="0.6"/>
<path fill-rule="evenodd" clip-rule="evenodd" d="M46.2709 42.5166C45.1177 42.58 43.9638 42.6744 43.9638 43.682C43.9638 44.2797 44.425 44.6465 45.2955 44.6465C45.6624 44.6465 46.0925 44.5833 46.2709 44.4991V42.5166ZM45.3275 45.4751C43.702 45.4751 42.8834 44.8142 42.8834 43.7021C42.8834 42.1291 44.5622 41.8461 46.2709 41.7517V41.3954C46.2709 40.6823 45.7989 40.43 45.0753 40.43C44.5407 40.43 43.8909 40.5986 43.5127 40.776L43.2193 39.9891C43.6704 39.7901 44.4357 39.591 45.1906 39.591C46.5446 39.591 47.3612 40.1154 47.3612 41.5104V45.0766C46.9521 45.2964 46.1246 45.4751 45.3275 45.4751Z" fill="#4C5566" fill-opacity="0.6"/>
<path fill-rule="evenodd" clip-rule="evenodd" d="M48.2739 45.3596V37.1269H49.4272V45.3596H48.2739Z" fill="#4C5566" fill-opacity="0.6"/>
<path fill-rule="evenodd" clip-rule="evenodd" d="M52.6156 45.3596V37.7665H53.7999V45.3596H52.6156Z" fill="#4C5566" fill-opacity="0.6"/>
<path fill-rule="evenodd" clip-rule="evenodd" d="M58.1222 45.3596V41.5837C58.1222 40.9229 57.7229 40.5139 56.9359 40.5139C56.5166 40.5139 56.1287 40.5873 55.898 40.6822V45.3596H54.7549V39.9891C55.3215 39.7593 56.0446 39.591 56.9258 39.591C58.5091 39.591 59.2751 40.2836 59.2751 41.4791V45.3596H58.1222Z" fill="#4C5566" fill-opacity="0.6"/>
<path fill-rule="evenodd" clip-rule="evenodd" d="M61.5924 45.4751C60.9316 45.4751 60.24 45.2964 59.8302 45.0766L60.2179 44.1952C60.5125 44.3737 61.1307 44.5628 61.5601 44.5628C62.18 44.5628 62.5886 44.2579 62.5886 43.7862C62.5886 43.272 62.1586 43.0732 61.5816 42.8628C60.8265 42.58 59.9773 42.2347 59.9773 41.1745C59.9775 40.2418 60.7004 39.591 61.9587 39.591C62.6408 39.591 63.2069 39.7593 63.6052 39.9891L63.2493 40.7864C62.9981 40.6294 62.4933 40.4515 62.0853 40.4515C61.4873 40.4515 61.1514 40.7657 61.1514 41.1745C61.1514 41.6893 61.5714 41.8668 62.127 42.0768C62.9139 42.3704 63.7843 42.6959 63.7843 43.7961C63.7843 44.8142 63.0082 45.4751 61.5924 45.4751Z" fill="#4C5566" fill-opacity="0.6"/>
<path fill-rule="evenodd" clip-rule="evenodd" d="M66.7202 45.4751C65.2312 45.4751 64.4338 44.8562 64.4338 43.4405V39.7067H65.5776V43.4609C65.5776 44.1852 65.9653 44.5308 66.7202 44.5308C67.1609 44.5308 67.5378 44.4568 67.7278 44.3737V39.7067H68.8708V45.0766C68.4089 45.3073 67.5807 45.4751 66.7202 45.4751Z" fill="#4C5566" fill-opacity="0.6"/>
<path fill-rule="evenodd" clip-rule="evenodd" d="M72.3628 40.5873C72.195 40.5457 71.9963 40.5243 71.7851 40.5243C71.4601 40.5243 71.1143 40.5769 70.8945 40.6713V45.3596H69.751V39.9891C70.2965 39.7593 71.1038 39.591 71.9426 39.591C72.195 39.591 72.4144 39.6023 72.5827 39.6325L72.3628 40.5873Z" fill="#4C5566" fill-opacity="0.6"/>
<path fill-rule="evenodd" clip-rule="evenodd" d="M76.0209 42.5166C74.8672 42.58 73.7133 42.6744 73.7133 43.682C73.7136 44.2797 74.1746 44.6465 75.045 44.6465C75.412 44.6465 75.842 44.5833 76.0209 44.4991V42.5166ZM75.0773 45.4751C73.451 45.4751 72.6329 44.8142 72.6329 43.7021C72.6329 42.1291 74.311 41.8461 76.0209 41.7517V41.3954C76.0209 40.6823 75.5484 40.43 74.8244 40.43C74.2896 40.43 73.6401 40.5986 73.2625 40.776L72.9684 39.9891C73.4199 39.7901 74.1852 39.591 74.9398 39.591C76.2929 39.591 77.111 40.1154 77.111 41.5104V45.0766C76.7023 45.2964 75.8736 45.4751 75.0773 45.4751Z" fill="#4C5566" fill-opacity="0.6"/>
<path fill-rule="evenodd" clip-rule="evenodd" d="M81.358 45.3596V41.5837C81.358 40.9229 80.9602 40.5139 80.1727 40.5139C79.7537 40.5139 79.3655 40.5873 79.134 40.6822V45.3596H77.991V39.9891C78.5578 39.7593 79.2814 39.591 80.1624 39.591C81.746 39.591 82.5112 40.2836 82.5112 41.4791V45.3596H81.358Z" fill="#4C5566" fill-opacity="0.6"/>
<path fill-rule="evenodd" clip-rule="evenodd" d="M85.6678 45.4751C84.4097 45.4751 83.1825 44.5734 83.1825 42.5281C83.1825 40.4829 84.4097 39.591 85.6678 39.591C86.2872 39.591 86.7696 39.7489 87.1152 39.9792L86.7381 40.808C86.5078 40.6396 86.1613 40.5351 85.8147 40.5351C85.06 40.5351 84.3673 41.1331 84.3673 42.5166C84.3673 43.901 85.0809 44.51 85.8147 44.51C86.1613 44.51 86.5078 44.4044 86.7381 44.2373L87.1152 45.0865C86.7591 45.3281 86.2872 45.4751 85.6678 45.4751Z" fill="#4C5566" fill-opacity="0.6"/>
<path fill-rule="evenodd" clip-rule="evenodd" d="M89.7796 40.43C88.8977 40.43 88.3214 41.1015 88.2996 42.2759L91.0373 41.8984C91.0276 40.9123 90.5336 40.43 89.7796 40.43ZM92.1282 42.5067L88.3728 43.0315C88.4885 44.0485 89.1489 44.5628 90.1039 44.5628C90.6708 44.5628 91.2788 44.4263 91.6661 44.2163L92.0026 45.0766C91.5621 45.3073 90.8063 45.4751 90.0313 45.4751C88.2474 45.4751 87.2505 44.332 87.2505 42.5281C87.2507 40.7975 88.2163 39.591 89.7999 39.591C91.268 39.591 92.1384 40.5564 92.1384 42.0768C92.1386 42.2126 92.1384 42.3596 92.1282 42.5067Z" fill="#4C5566" fill-opacity="0.6"/>
</g>
<defs>
<clipPath id="clip0_533_7926">
<rect width="112.068" height="32" fill="white" transform="translate(16.8198 14)"/>
</clipPath>
</defs>
</svg>
